<svg width="77" height="77" viewBox="0 0 77 77" fill="none" xmlns="http://www.w3.org/2000/svg">
<path d="M0 4C0 1.79086 1.79086 0 4 0H72.5C74.7091 0 76.5 1.79086 76.5 4V72.5C76.5 74.7091 74.7091 76.5 72.5 76.5H4C1.79086 76.5 0 74.7091 0 72.5V4Z" fill="#080F0F"/>
<path d="M14.1164 22.8911C15.2954 22.01 16.7765 21.675 18.1618 21.675C22.0748 21.675 25.4316 23.6186 27.8609 26.5329C28.7166 27.5501 28.932 28.6447 28.8129 29.6321C28.7193 30.4086 28.408 31.1141 28.2393 31.4965C28.2201 31.5401 28.2027 31.5795 28.1877 31.6143L27.7728 32.5938C27.4337 33.6453 27.2468 34.7968 27.2468 35.984C27.2468 42.0179 32.042 46.9173 37.8898 47.0315C43.7861 46.8849 48.5416 42.0132 48.5416 35.984C48.5416 34.7968 48.3548 33.6453 48.0157 32.5938L47.6024 31.6181L47.6009 31.6146C47.5858 31.5797 47.5684 31.5402 47.5491 31.4964C47.3804 31.1141 47.0691 30.4086 46.9755 29.6321C46.8563 28.6434 47.0723 27.5472 47.9308 26.5289L47.9334 26.5259C50.3946 23.6209 53.7479 21.675 57.6637 21.675C59.0503 21.675 60.5287 22.0106 61.7101 22.8884C62.9521 23.8113 63.7242 25.2349 63.7498 27.0464L63.75 27.058V27.0697C63.75 28.5912 63.2145 29.9275 62.2468 30.8847C61.2879 31.8333 60.0004 32.3146 58.6633 32.3146C57.9254 32.3146 57.2991 32.1838 56.749 31.944C56.335 31.7635 54.5474 29.8897 54.3012 29.6974C54.8718 31.924 56.749 34.3016 56.1837 38.4083C55.0485 47.2521 47.7804 54.1834 38.9729 54.781C38.5953 54.8251 38.2655 54.825 37.9964 54.825L37.895 54.825C37.691 54.825 37.5042 54.8124 37.3727 54.8035L37.3582 54.8025C37.2128 54.7927 37.1273 54.7875 37.0427 54.7875H36.9893L36.936 54.784C28.1062 54.2077 20.8137 47.2654 19.6783 38.4041L19.6766 38.3913C19.1262 34.0955 20.879 32.5938 21.9748 29.6974C21.7299 29.8884 19.5337 31.7685 19.1262 31.9452C18.5726 32.1853 17.9421 32.3146 17.1992 32.3146C14.4739 32.3146 12.1125 30.2612 12.1125 27.0697C12.1125 25.2525 12.8738 23.8197 14.1164 22.8911Z" fill="white"/>
</svg>
